# xmcd
#
# Track frame offsets: 
#        150
#        16382
#        34876
#        58540
#        75546
#        96143
#        113988
#        130180
#        146165
#        162895
#        177504
#        192684
#        208549
#        223559
#        238806
#        258293
#        270962
#        285723
#        302294
#        321438
#        337184
#
# Disc length: 4709 seconds
#
# Revision: 4
# Processed by: cddbd v1.5.2PL0 Copyright (c) Steve Scherf et al.
# Submitted via: ExactAudioCopy v0.99pb5
#
DISCID=3a126315
DTITLE=Various Artist - Ö3 Greatest Hits - Vol. 38
DYEAR=2007
DGENRE=Pop
TTITLE0=Avril Lavigne - Girlfriend
TTITLE1=Gwen Stefani feat. Akon - The sweet escape
TTITLE2=Justin Timberlake - What goes around... comes around
TTITLE3=Herbert Grönemeyer - Lied drei - Du bist die
TTITLE4=P!nk - Dear Mr. President
TTITLE5=Incubus - Love hurts
TTITLE6=Nelly Furtado - Say it right
TTITLE7=Excuse Me Moses - Butterfly tree
TTITLE8=Reamonn - Serpentine
TTITLE9=Christina Aguilera - Candyman
TTITLE10=Juli - Zerrissen
TTITLE11=David Bisbal - Silencio
TTITLE12=Mario Lang - Dein Weg
TTITLE13=Sunrise Avenue - Forever yours
TTITLE14=Hinder - Lips of an angel
TTITLE15=Mondscheiner - Mittendrin
TTITLE16=Sasha - Lucky day
TTITLE17=Luttenberger - Klug - Heut Nacht
TTITLE18=Take That - Reach out
TTITLE19=PBH Club - Mehr Meer
TTITLE20=Amy Winehouse - Rehab
EXTD=YEAR: 2007
EXTT0=
EXTT1=
EXTT2=
EXTT3=
EXTT4=
EXTT5=
EXTT6=
EXTT7=
EXTT8=
EXTT9=
EXTT10=
EXTT11=
EXTT12=
EXTT13=
EXTT14=
EXTT15=
EXTT16=
EXTT17=
EXTT18=
EXTT19=
EXTT20=
PLAYORDER=
